{"title":"The Road 2009 1080p.BluRay.5.1.x264 . NVEE","uid":10635750,"size":2468750314,"categoryP":"video","categoryS":"hd___movies","magnet":"?xt=urn:btih:ea4c1f5df401a10d298e079b471b7e976a5e8e4d&amp;dn=The+Road+2009+1080p.BluRay.5.1.x264+.+NVEE&amp;tr=udp%3A%2F%2Ftracker.openbittorrent.com%3A80&amp;tr=udp%3A%2F%2Fopen.demonii.com%3A1337&amp;tr=udp%3A%2F%2Ftracker.coppersurfer.tk%3A6969&amp;tr=udp%3A%2F%2Fexodus.desync.com%3A6969","seeders":48,"leechers":5,"uploader":".NVEE","files":4,"time":1406386709,"description":"\nQuick note :\nPlease seed to a Share Ratio of at least 1.1\nIf you require a torrent release I have posted in the past, not seeding,...\nPlease do not hesitate to inform me in any means you find fit to do so.\nTorrent requests also &quot;Always Welcome.&quot;\n\n\nFULL_INFOs\n\n99.99% --- SYNCED GUARANTEED \n\n&quot;Totally scrutinized / analyzed to be a verified torrent.&quot;\n___________________________________________\n\nSource : Blu-ray ~ 1080p\n\n\n\nSpoken Language : English\n\nAudio : 6 ~ Channels Only\n\n\nSubs Info :\n\nEnglish .srt ~ English_SDH .srt &amp; Chinese .srt\n\nAll .srt UTF-8 &amp; .idx subs can be turned On/Off\n_____________________________________\n---------------------------------------------------------------------------------\n\nGeneral Metadata\n\nComplete name : The Road 2009.816p.BluRay.5.1.x264 . NVEE.mp4\nFormat : MPEG-4\nFormat profile : Base Media\nCodec ID : isom\nFile size : 2.30 GiB\nDuration : 1h 51mn\nOverall bit rate : 2 956 Kbps\nEncoded date : UTC 2014-07-21 05:41:29\nTagged date : UTC 2014-07-21 05:41:29\n\n\nVideo\n\nID : 1\nFormat : AVC\nFormat/Info : Advanced Video Codec\nFormat profile : &lt;a class=&quot;__cf_email__&quot; href=&quot;/cdn-cgi/l/email-protection&quot; data-cfemail=&quot;e6ae8f818ea6aad2c8d4&quot;&gt;[email&amp;#160;protected]&lt;/a&gt;&lt;script cf-hash='f9e31' type=&quot;text/javascript&quot;&gt;\n/* &lt;![CDATA[ */!function(){try{var t=&quot;currentScript&quot;in document?document.currentScript:function(){for(var t=document.getElementsByTagName(&quot;script&quot;),e=t.length;e--;)if(t[e].getAttribute(&quot;cf-hash&quot;))return t[e]}();if(t&amp;&amp;t.previousSibling){var e,r,n,i,c=t.previousSibling,a=c.getAttribute(&quot;data-cfemail&quot;);if(a){for(e=&quot;&quot;,r=parseInt(a.substr(0,2),16),n=2;a.length-n;n+=2)i=parseInt(a.substr(n,2),16)^r,e+=String.fromCharCode(i);e=document.createTextNode(e),c.parentNode.replaceChild(e,c)}}}catch(u){}}();/* ]]&gt; */&lt;/script&gt;\nFormat settings, CABAC : Yes\nFormat settings, ReFrames : 3 frames\nCodec ID : avc1\nCodec ID/Info : Advanced Video Coding\nDuration : 1h 51mn\nBit rate : 2 379 Kbps\nMaximum bit rate : 15.6 Mbps\nWidth : 1 920 pixels\nHeight : 816 pixels\nDisplay aspect ratio : 2.35:1\nFrame rate mode : Constant\nFrame rate : 23.976 fps\nColor space : YUV\nChroma subsampling : 4:2:0\nBit depth : 8 bits\nScan type : Progressive\nBits/(Pixel*Frame) : 0.063\nStream size : 1.85 GiB (81%)\nWriting library : x264 core 142 r2431 ac76440\nEncoded from Physical Blu-ray / Region A\n\n\nAudio\n\nID : 2\nFormat : AC-3\nFormat/Info : Audio Coding 3\nMode extension : CM (complete main)\nFormat settings, Endianness : Big\nCodec ID : ac-3\nDuration : 1h 51mn\nBit rate mode : Constant\nBit rate : 576 Kbps\nChannel(s) : 6 channels\nChannel positions : Front: L C R, Side: L R, LFE\nSampling rate : 48.0 KHz\nBit depth : 16 bits\nCompression mode : Lossy\nStream size : 459 MiB (19%)\nLanguage : English\nEncoded date : UTC 2014-07-21 05:50:16\nTagged date : UTC 2014-07-21 05:51:12\nEncoded from Physical Blu-ray 6 Channel audio &quot;Always&quot;.\n\nEnj0y !\n","torrent":{"xt":"urn:btih:ea4c1f5df401a10d298e079b471b7e976a5e8e4d","amp;dn":"The+Road+2009+1080p.BluRay.5.1.x264+.+NVEE","amp;tr":["udp%3A%2F%2Ftracker.openbittorrent.com%3A80","udp%3A%2F%2Fopen.demonii.com%3A1337","udp%3A%2F%2Ftracker.coppersurfer.tk%3A6969","udp%3A%2F%2Fexodus.desync.com%3A6969"],"infoHash":"ea4c1f5df401a10d298e079b471b7e976a5e8e4d","infoHashBuffer":{"type":"Buffer","data":[234,76,31,93,244,1,161,13,41,142,7,155,71,27,126,151,106,94,142,77]},"announce":[],"urlList":[]}}